<svg version="1.2" xmlns="http://www.w3.org/2000/svg" viewBox="0 0 1640 664" width="1640" height="664">
	<title>Novo Projeto</title>
	<style>
	</style>
	<path id="NURFLIX" fill="#d81f26" aria-label="NURFLIX"  d="m216.13 509.96c0 0 67.49-10.98 67.49-10.98c0 0 0.16-23.28 0.39-58.19c0.12-17.45 0.26-37.82 0.4-59.64c0.15-21.81 0.3-45.09 0.46-68.36c0.16-23.28 0.31-46.55 0.46-68.37c0.15-21.82 0.28-42.18 0.4-59.64c0.24-34.91 0.39-58.18 0.39-58.18c0 0-58.78 0.63-58.78 0.63c0 0-0.09 14.26-0.21 35.65c-0.07 10.7-0.14 23.17-0.22 36.54c-0.08 13.37-0.17 27.64-0.25 41.9c-0.08 14.26-0.17 28.52-0.25 41.89c-0.08 13.37-0.15 25.85-0.22 36.54c-0.12 21.39-0.21 35.65-0.21 35.65c0 0-4.14-13.83-10.35-34.68c-3.1-10.46-6.73-22.7-10.61-35.85c-3.89-13.2-8.03-27.33-12.18-41.51c-4.15-14.23-8.31-28.51-12.2-41.95c-3.9-13.48-7.54-26.11-10.66-36.97c-6.24-21.8-10.41-36.4-10.41-36.4c0 0-20.68 0.26-41.37 0.54c-20.68 0.28-41.36 0.57-41.36 0.57c0 0-0.06 25.5-0.14 63.75c-0.04 19.13-0.09 41.45-0.14 65.36c-0.05 23.9-0.11 49.41-0.16 74.91c-0.06 25.5-0.11 51.01-0.16 74.92c-0.05 23.9-0.1 46.22-0.14 65.35c-0.09 38.25-0.14 63.75-0.14 63.75c0 0 58.66-12.13 58.66-12.13c0 0 0.07-17.95 0.17-44.89c0.06-13.47 0.12-29.19 0.19-46.02c0.06-16.84 0.13-34.8 0.21-52.76c0.07-17.96 0.14-35.92 0.2-52.75c0.07-16.84 0.13-32.55 0.19-46.02c0.1-26.94 0.17-44.9 0.17-44.9zm114.39-383.79c0 0-0.12 17.43-0.3 43.58c-0.1 13.07-0.2 28.33-0.32 44.67c-0.11 16.35-0.24 33.78-0.36 51.21c-0.12 17.44-0.24 34.87-0.36 51.22c-0.11 16.34-0.22 31.6-0.31 44.67c-0.19 26.15-0.31 43.58-0.31 43.58c-0.1 14.66 1.9 27.49 5.98 38.36c4.08 10.84 10.24 19.71 18.43 26.46c8.2 6.74 18.43 11.39 30.68 13.86c12.25 2.48 26.51 2.83 42.76 0.97c16.24-1.78 30.56-5.29 42.89-10.41c12.34-5.06 22.7-11.73 31.04-19.91c8.34-8.14 14.65-17.81 18.9-28.89c4.25-11.06 6.43-23.56 6.51-37.4c0 0 0.1-16.47 0.25-41.16c0.08-12.35 0.17-26.76 0.26-42.19c0.1-15.44 0.2-31.9 0.3-48.37c0.1-16.46 0.2-32.92 0.29-48.36c0.09-15.44 0.18-29.84 0.26-42.19c0.15-24.7 0.25-41.16 0.25-41.16c0 0-62.42 0.38-62.42 0.38c0 0-0.12 16.94-0.29 42.34c-0.09 12.71-0.19 27.53-0.29 43.41c-0.11 15.87-0.23 32.81-0.34 49.75c-0.12 16.94-0.23 33.87-0.34 49.75c-0.11 15.88-0.21 30.7-0.29 43.4c-0.17 25.41-0.29 42.35-0.29 42.35c-0.17 25.09-13.47 35.31-34.53 37.29c-21.05 2.09-34.2-5.76-34.02-31.35c0 0 0.12-17.28 0.31-43.2c0.09-12.95 0.2-28.07 0.32-44.27c0.11-16.2 0.24-33.47 0.36-50.75c0.12-17.28 0.25-34.55 0.36-50.75c0.12-16.2 0.22-31.32 0.32-44.27c0.18-25.92 0.31-43.2 0.31-43.2zm446.86 332.94c-6.64-12.38-7.23-24.34-7.22-40.63c0 0 0.06-51.72 0.06-51.72c0.02-17.48-2.68-32.54-9.53-44.58c-6.85-12.03-17.84-21.02-34.41-26.34c14.78-5.69 25.64-14.19 32.82-25.57c7.17-11.36 10.64-25.63 10.66-42.87c0 0 0.03-26.34 0.03-26.34c0.02-12.93-1.81-24.21-5.63-33.86c-3.82-9.64-9.63-17.65-17.58-24.05c-7.95-6.39-18.03-11.17-30.41-14.34c-12.38-3.17-27.04-4.73-44.15-4.68c0 0-24.92 0.07-49.83 0.15c-24.91 0.1-49.82 0.21-49.82 0.21c0 0-0.12 21.42-0.29 53.56c-0.09 16.07-0.19 34.81-0.3 54.9c-0.11 20.08-0.22 41.51-0.34 62.93c-0.11 21.42-0.23 42.85-0.34 62.93c-0.11 20.09-0.21 38.83-0.29 54.9c-0.18 32.13-0.29 53.56-0.29 53.56c0 0 66.47-3.96 66.47-3.96c0 0 0.04-8.62 0.09-21.57c0.06-12.94 0.13-30.2 0.2-47.45c0.07-17.26 0.14-34.52 0.2-47.46c0.05-12.94 0.09-21.57 0.09-21.57c0 0 22.91-0.67 22.91-0.67c15.07-0.38 25.92 2.25 32.99 8.89c7.07 6.65 10.36 17.28 10.32 32.9c0 0-0.14 52.89-0.14 52.89c-0.08 27.41 2.33 32.63 5.94 41.17zm-107.34-286.73c23.44-0.18 33.63 10.33 33.57 34.37c0 0-0.09 33.18-0.09 33.18c-0.07 26.93-15.16 35.83-39.86 36.3c0 0-25.9 0.59-25.9 0.59c0 0 0.11-26.04 0.22-52.08c0.1-26.03 0.21-52.07 0.21-52.07zm209.77-0.46c0 0 27.2 0.13 54.4 0.3c27.19 0.21 54.39 0.47 54.39 0.47c0 0-0.21-48.46-0.21-48.46c0 0-10.91-0.03-27.29-0.08c-16.38-0.05-38.22-0.1-60.05-0.14c-21.84-0.03-43.68-0.05-60.06-0.07c-16.38 0-27.3 0-27.3 0c0 0 0 20.93 0.01 52.34c0 15.7 0 34.02 0 53.65c0 19.63 0 40.57 0 61.51c0 20.93 0 41.87 0 61.5c0 19.63 0 37.95 0 53.65c0 31.41 0 52.35 0 52.35c0 0 66.6 0.65 66.6 0.65c0 0-0.02-8.66-0.04-21.65c-0.02-12.99-0.05-30.31-0.08-47.63c-0.03-17.32-0.06-34.64-0.08-47.63c-0.02-12.99-0.03-21.65-0.03-21.65c0 0 21.41 0.3 42.82 0.67c21.42 0.46 42.82 0.99 42.82 0.99c0 0-0.18-48.3-0.18-48.3c0 0-21.38-0.42-42.77-0.78c-21.38-0.29-42.78-0.52-42.78-0.52zm142.04 293.24c0 0 10.99 0.67 27.47 1.75c16.48 1.15 38.44 2.8 60.38 4.6c21.94 1.93 43.86 4 60.29 5.64c16.43 1.72 27.37 2.91 27.37 2.91c0 0-0.35-50.68-0.35-50.68c0 0-27.23-2.51-54.47-4.83c-27.27-2.14-54.55-4.09-54.55-4.09c0 0-0.11-18.49-0.27-46.22c-0.08-13.87-0.18-30.05-0.28-47.38c-0.1-17.33-0.21-35.82-0.32-54.31c-0.11-18.49-0.22-36.97-0.33-54.31c-0.1-17.33-0.19-33.5-0.28-47.37c-0.16-27.73-0.27-46.22-0.27-46.22c0 0-66.03-0.31-66.03-0.31zm204.38 18.2c0 0 66.03 8.48 66.03 8.48c0 0-0.16-22.86-0.4-57.14c-0.12-17.15-0.26-37.15-0.42-58.57c-0.15-21.43-0.31-44.29-0.47-67.15c-0.16-22.86-0.32-45.71-0.47-67.14c-0.16-21.43-0.3-41.43-0.42-58.57c-0.24-34.29-0.4-57.15-0.4-57.15c0 0-66-0.56-66-0.56zm270.37-354.92c0 0-3.15 9.11-7.87 22.74c-4.72 13.56-11.01 31.56-17.29 49.45c-6.28 17.79-12.55 35.48-17.26 48.68c-4.7 13.15-7.83 21.89-7.83 21.89c0 0-3.15-9.19-7.87-22.92c-4.73-13.67-11.03-31.81-17.34-49.85c-6.32-17.95-12.64-35.8-17.38-49.13c-4.74-13.27-7.91-22.09-7.91-22.09c0 0-68.38-0.73-68.38-0.73c0 0 4.39 11.32 10.97 28.36c6.58 17.13 15.35 40.11 24.11 63.24c8.76 23.3 17.52 46.76 24.08 64.47c6.56 17.8 10.93 29.72 10.93 29.72c0 0-4.53 11.82-11.31 29.47c-3.4 8.79-7.35 19.02-11.59 29.94c-4.24 10.88-8.76 22.45-13.29 33.98c-4.52 11.49-9.04 22.95-13.27 33.65c-4.24 10.67-8.2 20.6-11.59 29.09c-6.78 16.91-11.3 28.15-11.3 28.15c0 0 61.58 9.67 61.58 9.67c0 0 3.34-8.83 8.34-22.11c5.01-13.33 11.69-31.18 18.37-49.14c6.68-18.05 13.37-36.2 18.38-49.88c5.02-13.74 8.36-22.94 8.36-22.94c0 0 3.41 10 8.52 25.05c5.1 15.12 11.9 35.39 18.69 55.79c6.78 20.53 13.56 41.18 18.63 56.76c5.07 15.66 8.45 26.14 8.45 26.14c0 0 68.69 14.4 68.69 14.4c0 0-4.57-14.18-11.43-35.32c-3.43-10.52-7.44-22.74-11.74-35.78c-4.31-12.99-8.91-26.78-13.51-40.51c-4.61-13.66-9.22-27.27-13.55-39.97c-4.33-12.65-8.37-24.4-11.84-34.45c-6.95-19.98-11.58-33.23-11.58-33.23c0 0 4.24-11.63 10.61-29.15c6.37-17.63 14.87-41.3 23.39-65.17c8.52-24.05 17.06-48.31 23.47-66.63c6.42-18.44 10.71-30.8 10.71-30.8z" />
</svg>